<svg width="300" height="300" viewBox="0 0 428 402" fill="none" xmlns="http://www.w3.org/2000/svg">
    <g clip-path="url(#clip0)">
    <path d="M70 390C66.6667 390 63.8333 389 61.5 387C59.5 384.667 58.5 381.833 58.5 378.5V52C58.5 48.3333 59.5 45.5 61.5 43.5C63.8333 41.1666 66.6667 40 70 40H95C100.333 40 104.667 42.6666 108 48L213.5 250L320 48C320.667 46 322 44.1666 324 42.5C326.333 40.8333 329.167 40 332.5 40H357C360.667 40 363.5 41.1666 365.5 43.5C367.833 45.5 369 48.3333 369 52V378.5C369 381.833 367.833 384.667 365.5 387C363.167 389 360.333 390 357 390H332.5C329.167 390 326.333 389 324 387C322 384.667 321 381.833 321 378.5V132.5L237.5 295.5C234.167 302.5 228.833 306 221.5 306H206C198.667 306 193.333 302.5 190 295.5L106 132.5V378.5C106 381.833 104.833 384.667 102.5 387C100.5 389 97.8333 390 94.5 390H70Z" fill="#805BAE" fill-opacity="0.6"/>
    <g filter="url(#filter0_d)">
    <path fill-rule="evenodd" clip-rule="evenodd" d="M213.446 47.0291C214.036 46.9903 214.629 46.9903 215.219 47.0291L316.002 53.6501C316.56 53.6787 317.114 53.7419 317.658 53.8384C319.465 54.1556 321.122 54.8278 322.549 55.7685C323.692 56.5203 324.708 57.4583 325.54 58.5625L390.399 144.729C390.527 144.896 390.65 145.067 390.769 145.241C392.295 147.479 392.878 150.034 392.599 152.495C392.525 153.15 392.39 153.797 392.196 154.431C391.712 156.006 390.86 157.493 389.664 158.772L224.016 344.244C223.731 344.568 223.428 344.877 223.109 345.169C222.071 346.119 220.859 346.892 219.532 347.453C218.46 347.907 217.313 348.222 216.123 348.381C215.536 348.46 214.938 348.5 214.333 348.5C214.028 348.5 213.725 348.49 213.424 348.47C212.054 348.377 210.731 348.079 209.499 347.601C208.293 347.133 207.175 346.493 206.187 345.706C205.63 345.263 205.115 344.773 204.648 344.241L39.0028 158.772C37.6814 157.359 36.7803 155.692 36.3311 153.932C36.2741 153.709 36.2245 153.485 36.1823 153.26C35.6746 150.554 36.2186 147.68 37.9257 145.2C38.0353 145.04 38.1489 144.884 38.2664 144.73L103.044 58.6724C103.261 58.3779 103.492 58.0929 103.737 57.8184C105.571 55.7634 108.175 54.2961 111.181 53.8089C111.667 53.7294 112.16 53.6763 112.656 53.6505L213.446 47.0291ZM240.689 71.6469L301.656 75.6521L295.513 132.154L240.689 71.6469ZM187.978 71.6467L127.01 75.652L133.154 132.155L187.978 71.6467ZM158.554 139.871H270.113L214.334 78.3078L158.554 139.871ZM108.985 139.871L104.341 97.157L72.1889 139.871H108.985ZM114.714 162.757L163.974 262.642L74.7641 162.757H114.714ZM264.693 262.643L353.903 162.757H313.952L264.693 262.643ZM286.629 162.757L214.333 309.354L142.038 162.757H286.629ZM319.682 139.871H356.478L324.326 97.157L319.682 139.871Z" fill="#2E3A59" fill-opacity="0.6"/>
    </g>
    </g>
    <defs>
    <filter id="filter0_d" x="32" y="47" width="364.667" height="309.5" filterUnits="userSpaceOnUse" color-interpolation-filters="sRGB">
    <feFlood flood-opacity="0" result="BackgroundImageFix"/>
    <feColorMatrix in="SourceAlpha" type="matrix" values="0 0 0 0 0 0 0 0 0 0 0 0 0 0 0 0 0 0 127 0"/>
    <feOffset dy="4"/>
    <feGaussianBlur stdDeviation="2"/>
    <feColorMatrix type="matrix" values="0 0 0 0 0 0 0 0 0 0 0 0 0 0 0 0 0 0 0.25 0"/>
    <feBlend mode="normal" in2="BackgroundImageFix" result="effect1_dropShadow"/>
    <feBlend mode="normal" in="SourceGraphic" in2="effect1_dropShadow" result="shape"/>
    </filter>
    <clipPath id="clip0">
    <rect width="428" height="402" fill="white"/>
    </clipPath>
    </defs>
</svg>